<!--?xml version="1.0" encoding="us-ascii" standalone="no"?--><svg xmlns="http://www.w3.org/2000/svg" xmlns:xlink="http://www.w3.org/1999/xlink" contentstyletype="text/css" height="360px" preserveAspectRatio="none" style="width:1065px;height:360px;background:#FFFFFF;" version="1.1" viewBox="0 0 1065 360" width="1065px" zoomAndPan="magnify"><defs></defs><g><!--cluster Project Veritas--><g id="cluster_Project Veritas"><rect fill="none" height="209.59" rx="2.5" ry="2.5" style="stroke:#181818;stroke-width:1.0;" width="1052" x="7" y="144.8"></rect><text fill="#000000" font-family="sans-serif" font-size="14" font-weight="bold" lengthAdjust="spacing" textLength="117" x="474.5" y="159.7951">Project Veritas</text></g><!--entity WA--><g id="elem_WA"><rect fill="#F1F1F1" height="36.2969" rx="2.5" ry="2.5" style="stroke:#181818;stroke-width:0.5;" width="130" x="355" y="179.8"></rect><text fill="#000000" font-family="sans-serif" font-size="14" lengthAdjust="spacing" textLength="110" x="365" y="202.7951">Web Application</text></g><!--entity DB--><g id="elem_DB"><path d="M22.5,303.09 C22.5,293.09 67,293.09 67,293.09 C67,293.09 111.5,293.09 111.5,303.09 L111.5,328.3869 C111.5,338.3869 67,338.3869 67,338.3869 C67,338.3869 22.5,338.3869 22.5,328.3869 L22.5,303.09 " fill="#F1F1F1" style="stroke:#181818;stroke-width:0.5;"></path><path d="M22.5,303.09 C22.5,313.09 67,313.09 67,313.09 C67,313.09 111.5,313.09 111.5,303.09 " fill="none" style="stroke:#181818;stroke-width:0.5;"></path><text fill="#000000" font-family="sans-serif" font-size="14" lengthAdjust="spacing" textLength="69" x="32.5" y="330.0851">MongoDB</text></g><!--entity ML--><g id="elem_ML"><rect fill="#F1F1F1" height="36.2969" rx="2.5" ry="2.5" style="stroke:#181818;stroke-width:0.5;" width="195" x="146.5" y="297.59"></rect><text fill="#000000" font-family="sans-serif" font-size="14" lengthAdjust="spacing" textLength="175" x="156.5" y="320.5851">Machine Learning Models</text></g><!--entity GD--><g id="elem_GD"><rect fill="#F1F1F1" height="36.2969" rx="2.5" ry="2.5" style="stroke:#181818;stroke-width:0.5;" width="147" x="376.5" y="297.59"></rect><text fill="#000000" font-family="sans-serif" font-size="14" lengthAdjust="spacing" textLength="127" x="386.5" y="320.5851">Geographical Data</text></g><!--entity MD--><g id="elem_MD"><rect fill="#F1F1F1" height="36.2969" rx="2.5" ry="2.5" style="stroke:#181818;stroke-width:0.5;" width="103" x="588.5" y="297.59"></rect><text fill="#000000" font-family="sans-serif" font-size="14" lengthAdjust="spacing" textLength="83" x="598.5" y="320.5851">Market Data</text></g><!--entity DNS--><g id="elem_DNS"><rect fill="#F1F1F1" height="36.2969" rx="2.5" ry="2.5" style="stroke:#181818;stroke-width:0.5;" width="171" x="738.5" y="297.59"></rect><text fill="#000000" font-family="sans-serif" font-size="14" lengthAdjust="spacing" textLength="151" x="748.5" y="320.5851">Domain Name Service</text></g><!--entity U--><g id="elem_U"><ellipse cx="420" cy="14" fill="#F1F1F1" rx="8" ry="8" style="stroke:#181818;stroke-width:0.5;"></ellipse><path d="M420,22 L420,49 M407,30 L433,30 M420,49 L407,64 M420,49 L433,64 " fill="none" style="stroke:#181818;stroke-width:0.5;"></path><text fill="#000000" font-family="sans-serif" font-size="14" lengthAdjust="spacing" textLength="32" x="404" y="78.4951">User</text></g><!--link U to WA--><g id="link_U_WA"><path d="M420,82.29 C420,110.88 420,149.28 420,173.58 " fill="none" id="U-to-WA" style="stroke:#181818;stroke-width:1.0;"></path><polygon fill="#181818" points="420,178.44,424,169.44,420,173.44,416,169.44,420,178.44" style="stroke:#181818;stroke-width:1.0;"></polygon><text fill="#000000" font-family="sans-serif" font-size="13" lengthAdjust="spacing" textLength="85" x="421" y="124.8669">Interacts with</text></g><!--link WA to DB--><g id="link_WA_DB"><path d="M354.67,202.63 C276.17,208.13 150.14,220.67 111,246.09 C95.88,255.91 84.92,272.95 77.71,287.6 " fill="none" id="WA-to-DB" style="stroke:#181818;stroke-width:1.0;"></path><polygon fill="#181818" points="75.23,291.87,82.6864,285.4355,77.3624,287.3475,75.4504,282.0236,75.23,291.87" style="stroke:#181818;stroke-width:1.0;"></polygon><text fill="#000000" font-family="sans-serif" font-size="13" lengthAdjust="spacing" textLength="75" x="112" y="259.1569">Stores data</text></g><!--link WA to ML--><g id="link_WA_ML"><path d="M354.58,204.1 C297.21,210.15 220.06,222.49 201,246.09 C188.97,260.99 201.91,279.47 216.66,293.5 " fill="none" id="WA-to-ML" style="stroke:#181818;stroke-width:1.0;"></path><polygon fill="#181818" points="219.84,296.33,215.918,287.2957,216.1578,292.9475,210.506,293.1873,219.84,296.33" style="stroke:#181818;stroke-width:1.0;"></polygon><text fill="#000000" font-family="sans-serif" font-size="13" lengthAdjust="spacing" textLength="203" x="202" y="259.1569">Uses for analysis and prediction</text></g><!--link WA to GD--><g id="link_WA_GD"><path d="M416.15,216.46 C413.99,229.57 412.53,247.79 417,263.09 C420.07,273.61 426.01,284.02 432.01,292.71 " fill="none" id="WA-to-GD" style="stroke:#181818;stroke-width:1.0;"></path><polygon fill="#181818" points="435.33,296.35,433.3281,286.7067,432.413,292.2891,426.8307,291.3739,435.33,296.35" style="stroke:#181818;stroke-width:1.0;"></polygon><text fill="#000000" font-family="sans-serif" font-size="13" lengthAdjust="spacing" textLength="178" x="418" y="259.1569">Retrieves geographical data</text></g><!--link WA to MD--><g id="link_WA_MD"><path d="M485.34,203.48 C522.42,208.91 567.9,220.69 601,246.09 C616.01,257.61 626.17,276.67 632.35,291.79 " fill="none" id="WA-to-MD" style="stroke:#181818;stroke-width:1.0;"></path><polygon fill="#181818" points="634.45,296.16,634.884,286.3207,632.6226,291.5059,627.4374,289.2445,634.45,296.16" style="stroke:#181818;stroke-width:1.0;"></polygon><text fill="#000000" font-family="sans-serif" font-size="13" lengthAdjust="spacing" textLength="142" x="616" y="259.1569">Retrieves market data</text></g><!--link WA to DNS--><g id="link_WA_DNS"><path d="M485.3,202.19 C572.08,207.45 719.95,219.99 767,246.09 C786.27,256.78 801.73,276.8 811.66,292.47 " fill="none" id="WA-to-DNS" style="stroke:#181818;stroke-width:1.0;"></path><polygon fill="#181818" points="814.56,296.18,813.2352,286.4207,811.9331,291.9256,806.4282,290.6236,814.56,296.18" style="stroke:#181818;stroke-width:1.0;"></polygon><text fill="#000000" font-family="sans-serif" font-size="13" lengthAdjust="spacing" textLength="217" x="788" y="259.1569">Looks up available domain names</text></g><!--SRC=[PP11JuGm48Nl_8h9tlSFU31PqeIOmCP8SCz36Q5kQScqOepnlpkKWmWzjNtVlFOzrD4pD84OC42JCUc8hhS4fsVsxtA2Ls8JCPpWEmDP6-96BLocoHgDqNXtMYnkbqHr6B75853bNUzLdaILxoqgr8Dn12KXE-Dwg7n7DYIwAlTqGRvdd0Pvq8AI9n9NgAChtod-4TM1K7v4u-2A8q5DF1jDwm-lTPRO1ixdHqa33_3a8Z7g6E3Jn26fSh_8AXUvbWOffCHRhIf5as83l4d3wD1-1HDaqy74r1czLBOTA9GCl51aGxDCzTki1_F_xBZctLCIHh3I-tk0ZmbmHcEnbVZTcjv9-f3z_080]--></g></svg>